<svg width="1004" height="381" viewBox="0 0 1004 381" fill="none" xmlns="http://www.w3.org/2000/svg">
<path d="M418.3 271.1V218C418.3 187.8 418.7 160.8 418.7 160.8C418.6 112.7 374.1 73.6 320.6 73.6C281.8 73.6 247.1 94.4 231.5 124.3C218.6 120.6 205.9 118 193.1 117.2C180.3 96.7 154.7 73.6 114.9 73.6C54.8 73.6 0.0999756 122.2 0.0999756 182.3C0.0999756 242.4 54.9 290.9 115 290.9C166.9 290.9 204.9 261.5 222.1 220.2L218 217.3C201.7 252.8 172.2 283.1 125.7 283.1C108.1 283.1 91.4 278.2 76.7 269.2L201.7 135.2C200.6 131.4 198.8 126.9 196.2 122.2C207.1 123.1 218.2 125.3 229.2 128.7C224.7 138.9 222.3 149.5 222.3 161C222.3 208.8 267.2 248 320.8 248C343.7 248 364.5 241.1 381.3 229.2L386.6 225.1C387.7 224.2 388.8 223.3 389.8 222.3V305.8C389.8 327.9 362.8 365 325.7 365C280.3 365 267.7 339.3 239.9 289.8H235C244.8 310.2 264 350.3 264 380.5H268.9C268.9 368.7 269.7 362.5 276.3 362.5C285.7 362.5 295.1 371.5 323.7 371.5C354.8 371.5 378 351.1 389.9 329.4V371.5H394.8C394.8 328.2 418.5 328.2 461.8 328.2V323.3C418.3 323.4 418.3 301.3 418.3 271.1ZM72.5 266.8C47.6 249.2 30.8 219 30.8 179.4C30.8 119.3 60.6 79.3 108.4 79.3C143.5 79.3 168.1 101 168.1 138.1C168.1 170.4 104.3 231.2 72.5 266.8ZM320.7 243.1C279.8 243.1 252.9 212 252.9 161C252.9 152.8 253.7 145.5 254.9 138.5C296.2 157.3 336.6 188.8 370.5 219.8C359.1 234.9 341.5 243.1 320.7 243.1ZM374.2 214.9C338.7 184.3 297.8 152.4 255.7 133.6C263.9 98.5 287.6 78.4 320.7 78.4C362.9 78.4 385.3 113.7 387.9 152.4C389.3 173.6 385.9 196.8 374.2 214.9Z" fill="white"/>
<path d="M821.2 118.5C821.2 94.8 844.5 78.5 883.7 78.5C936.8 78.5 971.1 112.4 996.1 156.5H1001C991.2 136.1 972 96 972 65.8H967.1C967.1 77.6 966.3 83.8 959.7 83.8C950.3 83.8 916 73.6 883.7 73.6C837.5 73.6 804 93.2 804 127.5C804 211.3 988.3 190.4 988.3 249.7C988.3 269.7 956 286.1 921.7 286.1C863.3 286.1 823.6 247.7 798.7 203.6H793.8C799.2 214.8 807.3 231.7 813.6 249.8C819.9 267.8 792.7 278.7 785.6 261C782 252.1 782 240.5 782 227.3V0H777C777 43.3 753.3 43.3 710 43.3V48.2C753.3 48.2 753.3 70.3 753.3 100.5V140.1C743.4 118.5 731.4 88.4 731.4 64.5H726.5C726.5 76.3 725.7 82.5 719.1 82.5C709.7 82.5 700.3 73.5 671.7 73.5C640.6 73.5 617.4 93.9 605.5 115.6V73.5H600.6C600.6 116.8 576.9 116.8 533.6 116.8V121.7C576.9 121.7 576.9 143.8 576.9 174V227.1C576.9 257.3 576.9 279.4 533.6 279.4C490.3 279.4 490.3 257.3 490.3 227.1V73.5H485.4C485.4 116.8 461.7 116.8 418.4 116.8V121.7C461.7 121.7 461.7 143.8 461.7 174V227.1C461.7 257.3 461.7 279.4 418.4 279.4V284.3H533.6H648.8V279.4C605.5 279.4 605.5 257.3 605.5 227.1V139.3C605.5 117.2 632.5 80.1 669.6 80.1C713.7 80.1 726.9 104.5 753.2 151.3V227.2C753.2 257.4 753.2 279.5 709.9 279.5V284.4H822.1C823.5 284.4 836.9 284.4 843.5 284.4C852.9 284.4 879.1 290.9 915.9 290.9C966.6 290.9 1003.7 272.1 1003.7 240.6C1003.9 156.5 821.2 178.9 821.2 118.5Z" fill="white"/>
</svg>
